<?xml version="1.0" encoding="utf-8"?>
<!-- Generator: Adobe Illustrator 15.0.0, SVG Export Plug-In . SVG Version: 6.00 Build 0)  -->
<!DOCTYPE svg PUBLIC "-//W3C//DTD SVG 1.1//EN" "http://www.w3.org/Graphics/SVG/1.1/DTD/svg11.dtd">
<svg version="1.1" id="Layer_1" xmlns="http://www.w3.org/2000/svg" xmlns:xlink="http://www.w3.org/1999/xlink" x="0px" y="0px"
	 width="54px" height="32px" viewBox="0 0 54 32" enable-background="new 0 0 54 32" xml:space="preserve">
<g>
	<path fill="#FFD500" d="M49.352,29.066c-3.369,2.672-8.813,4.129-12.363,1.023c-2.112-1.848-2.987-5.979-1.752-8.418
		c1.609-3.15,5.093-4.285,8.313-4.285h4.639v-0.424c0-1.829-0.16-3.114-0.846-3.807c-1.933-1.918-6.521-1.537-9.146-1.055
		L37.674,9.53c4.217-0.924,11.219-1.356,13.439,2.009c1.156,1.737,1.318,4.319,1.318,6.368v5.926c0,2.021,0.422,4.58,1.568,6.207
		l-2.868,1.678C50.389,30.965,49.846,30.041,49.352,29.066L49.352,29.066z M13.204,28.012c-1.047,0-1.861,0.885-1.801,1.98
		c0.05,1.084,0.956,1.967,2.002,1.967c1.057,0,1.861-0.883,1.811-1.967C15.156,28.896,14.26,28.012,13.204,28.012L13.204,28.012z
		 M15.119,9.781l4.266-0.442l0.016,13.943c0.01,2.983,0.865,5.334,4.236,5.334c2.253,0,3.33-0.813,4.99-2.271
		c-0.081-0.886-0.252-1.771-0.252-2.662V9.522l4.467-0.442v14.795c0,1.988,0.322,4.277,1.469,6.066l-3.026,1.807
		c-0.813-0.984-1.38-1.857-1.741-2.641c-2.303,1.775-3.862,2.729-6.81,2.729c-1.731,0-3.552-0.219-4.89-1.244
		c-1.509-1.162-2.063-2.289-2.394-3.938c-0.201-1.024-0.302-2.1-0.302-3.225L15.119,9.781z M48.184,20.137H43.93
		c-3.754,0-4.859,2.242-5.002,4.17c-0.148,2.209,1.198,4.311,3.715,4.311c1.99,0,4.437-0.824,5.813-2.291
		c-0.183-0.936-0.272-1.549-0.272-2.49V20.137L48.184,20.137z"/>
	<path fill="#1162B3" d="M0.561,9.331L3.388,6.9C4.424,6.006,5.26,5.996,6.96,5.996h10.01c1.67,0,1.569,2.451-0.101,2.641
		L9.978,9.391c0-0.563,0.523-1.848,2.032-2.169l3.22-0.683l-3.661,0.463c-2.482,0.397-2.72,2.671-2.7,3.344l3.307-0.326L8.743,25
		l-1.885-2.867l0.806-5.882l-1.549,6.208l3.743,5.814c0.956,1.484,0.352,3.072-0.604,3.727l-5.262-7.744
		c-0.916-1.336-0.835-1.738-0.382-4.008L5.933,8.417c0,0-0.644,0.09-1.167,0.512l-2.072,1.688l1.7,2.933
		c0.704,1.215-0.071,2.491-0.544,2.813L0.228,11.06C-0.174,10.466-0.033,9.833,0.561,9.331L0.561,9.331z M10.491,0
		c1.288,0,2.324,1.095,2.294,2.431c-0.03,1.346-1.107,2.44-2.395,2.44c-1.298,0-2.324-1.095-2.294-2.44
		C8.116,1.095,9.193,0,10.491,0L10.491,0z M5.504,27.783L5.31,28.705C4.937,30.502,6.114,31.768,7.261,32l0.264-1.166L5.504,27.783z
		"/>
</g>
</svg>
